<?xml version="1.0" standalone="no"?><!DOCTYPE svg PUBLIC "-//W3C//DTD SVG 1.1//EN" "http://www.w3.org/Graphics/SVG/1.1/DTD/svg11.dtd"><svg t="1681567716938" class="icon" viewBox="0 0 1024 1024" version="1.1" xmlns="http://www.w3.org/2000/svg" p-id="4259" width="32" height="32" xmlns:xlink="http://www.w3.org/1999/xlink"><path d="M807.475 132.71c-11.315-14.49-32.307-17.152-46.797-5.939l-54.988 42.65-45.927 35.635a20.465 20.465 0 0 0-3.635 28.723 20.465 20.465 0 0 0 28.723 3.635l29.901-23.193c1.28 1.69 2.509 3.379 3.738 5.12 1.177 1.638 2.406 3.277 3.532 4.966 1.69 2.458 3.328 5.018 4.967 7.527 1.024 1.587 2.048 3.123 3.072 4.71 1.843 2.918 3.584 5.94 5.325 8.909 0.716 1.229 1.433 2.406 2.15 3.635 2.355 4.198 4.66 8.448 6.81 12.749 0.614 1.177 1.126 2.406 1.74 3.584 1.536 3.123 3.072 6.297 4.506 9.472 0.768 1.74 1.485 3.481 2.253 5.171 1.177 2.714 2.355 5.427 3.43 8.14 0.768 1.895 1.485 3.84 2.202 5.735 0.973 2.611 1.945 5.223 2.867 7.834 0.717 1.997 1.331 4.045 1.997 6.041 0.819 2.56 1.69 5.172 2.457 7.783 0.615 2.048 1.178 4.147 1.792 6.195 0.717 2.611 1.434 5.171 2.048 7.782l1.536 6.298a198.048 198.048 0 0 1 1.69 7.936c0.41 2.1 0.87 4.198 1.229 6.349 0.512 2.713 0.921 5.376 1.382 8.09 0.307 2.099 0.666 4.198 0.973 6.297 0.358 2.765 0.717 5.58 1.024 8.397 0.205 2.048 0.46 4.096 0.666 6.144 0.256 2.918 0.46 5.888 0.665 8.806 0.103 1.946 0.307 3.84 0.359 5.786 0.153 3.277 0.204 6.553 0.256 9.83 0.05 1.639 0.102 3.226 0.102 4.864 0 4.915-0.051 9.83-0.256 14.746-2.509 60.006-21.811 118.22-55.86 168.294a111.74 111.74 0 0 0-8.6 14.95 114.237 114.237 0 0 0-11.316 49.562v121.805c0 4.3-1.69 8.294-4.762 11.264-3.072 2.97-7.168 4.66-11.417 4.403-6.81-0.205-12.647-5.632-14.541-12.646-0.154-0.563-0.307-1.075-0.41-1.639a18.842 18.842 0 0 1-0.256-2.97v-56.422c0-12.595-6.81-24.217-17.715-30.412a35.082 35.082 0 0 0-35.225 0.41 319.416 319.416 0 0 1-27.341 14.591c-21.453 10.189-35.328 32.154-35.328 55.91v104.551c0 4.3-1.69 8.294-4.762 11.264-3.072 2.97-7.065 4.608-11.417 4.403-8.244-0.256-15.207-8.14-15.207-17.203V791.91c0-15.564-6.195-30.054-17.357-40.857-11.315-10.906-26.112-16.589-41.984-15.923l-2.406 0.102c-6.093 0.205-12.186 0.154-18.227 0h-1.383c-5.785-0.154-11.52-0.512-17.203-0.973l-2.15-0.153a357.24 357.24 0 0 1-16.589-1.895c-0.82-0.102-1.69-0.205-2.509-0.358a344.505 344.505 0 0 1-16.179-2.816c-0.87-0.154-1.69-0.359-2.56-0.512-5.325-1.127-10.65-2.355-15.923-3.738-0.82-0.205-1.587-0.41-2.407-0.665-5.324-1.434-10.598-2.97-15.82-4.71-0.666-0.206-1.332-0.462-1.997-0.666a346.545 346.545 0 0 1-15.923-5.735c-0.41-0.153-0.82-0.358-1.28-0.512a302.654 302.654 0 0 1-16.23-6.912c-0.052 0-0.052-0.051-0.103-0.051-5.479-2.509-10.906-5.222-16.23-8.038-0.154-0.103-0.308-0.154-0.513-0.256a343.676 343.676 0 0 1-15.257-8.653c-0.41-0.256-0.82-0.461-1.229-0.717a296.313 296.313 0 0 1-14.285-9.267c-0.512-0.359-1.075-0.717-1.587-1.075-4.608-3.175-9.114-6.503-13.568-9.933-0.563-0.41-1.126-0.87-1.69-1.28-4.403-3.43-8.704-7.015-12.953-10.65a21.1 21.1 0 0 1-1.587-1.433c-4.199-3.738-8.346-7.527-12.39-11.47l-1.383-1.382c-4.096-4.044-8.09-8.14-11.93-12.441-0.358-0.359-0.665-0.768-1.024-1.127a322.141 322.141 0 0 1-11.571-13.516c-0.051-0.052-0.102-0.103-0.102-0.154l106.086-82.278c1.229-0.973 2.97-0.973 4.352-0.052 26.47 16.999 57.14 23.962 88.627 20.224 58.931-7.065 106.701-52.89 116.224-111.513 3.533-21.709 1.843-43.11-4.966-63.744-0.512-1.639-0.103-3.277 1.126-4.199l72.653-56.678a20.465 20.465 0 0 0 3.635-28.723 20.465 20.465 0 0 0-28.723-3.635l-72.858 56.473c-14.899 11.52-20.89 31.437-14.899 49.46 4.71 14.284 5.888 29.235 3.43 44.339-6.604 40.704-39.782 72.55-80.69 77.414-21.965 2.611-43.316-2.202-61.697-14.029-15.974-10.24-36.71-9.37-51.558 2.15l-122.112 94.72-54.938 42.599c-14.49 11.264-17.152 32.256-5.888 46.848 82.535 106.803 207.002 170.496 341.453 174.694h0.666c11.008 0 20.121-8.755 20.48-19.865a20.475 20.475 0 0 0-19.815-21.095c-119.705-3.737-230.707-59.34-305.715-152.934l32.512-25.242c0.154 0.205 0.359 0.41 0.512 0.666l3.072 3.686a182.645 182.645 0 0 0 4.045 4.813c1.075 1.28 2.202 2.509 3.328 3.789 1.331 1.485 2.662 3.02 3.994 4.454a245.71 245.71 0 0 0 3.584 3.84c1.33 1.383 2.61 2.765 3.942 4.148 1.28 1.28 2.509 2.56 3.789 3.84l3.891 3.89c1.331 1.28 2.662 2.56 4.045 3.84a252.636 252.636 0 0 0 8.14 7.425c1.28 1.126 2.56 2.304 3.892 3.43l4.403 3.789c1.28 1.075 2.56 2.15 3.891 3.174 1.536 1.23 3.072 2.51 4.608 3.687 1.28 1.024 2.56 1.997 3.84 2.97a296.804 296.804 0 0 0 4.813 3.635c1.28 0.921 2.56 1.843 3.789 2.764 1.69 1.178 3.328 2.407 5.017 3.584 1.23 0.87 2.51 1.741 3.79 2.56a308.252 308.252 0 0 0 5.222 3.482 92.142 92.142 0 0 0 3.737 2.355c1.792 1.127 3.635 2.304 5.427 3.43 1.178 0.717 2.356 1.383 3.533 2.1 1.895 1.126 3.84 2.304 5.735 3.379 1.075 0.614 2.15 1.178 3.174 1.792a347.775 347.775 0 0 0 21.709 11.213l3.533 1.69c1.74 0.819 3.481 1.535 5.273 2.355 1.587 0.716 3.123 1.382 4.71 2.048 1.639 0.716 3.329 1.382 5.018 2.048 1.69 0.665 3.38 1.382 5.069 2.048 1.587 0.614 3.226 1.228 4.864 1.843l5.376 1.997c1.536 0.563 3.123 1.075 4.66 1.587a246.29 246.29 0 0 0 5.682 1.894c1.485 0.512 3.021 0.973 4.557 1.434 1.997 0.614 3.943 1.229 5.94 1.792 1.484 0.41 2.969 0.819 4.403 1.229 2.048 0.563 4.096 1.126 6.195 1.638l4.3 1.075 6.452 1.536 4.147 0.922 6.707 1.382 3.994 0.768c2.304 0.41 4.659 0.82 7.014 1.229l3.84 0.614c2.407 0.359 4.864 0.717 7.27 1.024l3.636 0.461c2.56 0.307 5.069 0.563 7.629 0.82 1.126 0.102 2.252 0.255 3.379 0.358 2.662 0.256 5.325 0.46 7.987 0.614 1.024 0.051 2.048 0.154 3.123 0.205 2.816 0.154 5.632 0.307 8.448 0.41 0.87 0.05 1.792 0.102 2.663 0.102 3.072 0.102 6.144 0.154 9.216 0.154 0.665 0 1.33 0.05 2.048 0.05 3.737 0 7.526-0.05 11.315-0.153l2.816-0.102c4.454-0.256 8.755 1.433 11.98 4.505 3.124 2.97 4.813 7.015 4.813 11.316v71.321c0 31.13 24.628 57.242 54.938 58.163h1.74c14.798 0 28.775-5.632 39.425-15.974 11.11-10.752 17.203-25.19 17.203-40.653V834.15c16.384-5.632 32.512-12.134 48.18-19.61 10.034 11.572 24.422 19.15 40.447 19.61 15.514 0.461 30.106-5.222 41.165-15.974 11.11-10.752 17.203-25.19 17.203-40.653V655.872c0-9.216 1.741-18.278 5.12-26.829 1.997-5.12 4.608-10.035 7.783-14.694 38.297-56.371 60.057-121.959 62.873-189.594 0.256-5.53 0.307-11.11 0.307-16.64 0-1.843-0.102-3.686-0.102-5.53a389.495 389.495 0 0 0-0.307-11.007c-0.103-2.202-0.307-4.404-0.41-6.605-0.205-3.277-0.41-6.605-0.717-9.882-0.204-2.355-0.512-4.659-0.768-6.963a583.99 583.99 0 0 0-1.126-9.37c-0.307-2.406-0.717-4.761-1.075-7.116-0.461-3.021-0.973-6.042-1.536-9.063-0.461-2.406-0.922-4.813-1.383-7.168-0.614-2.97-1.228-5.939-1.894-8.857a364.544 364.544 0 0 0-1.74-7.168c-0.718-2.919-1.537-5.837-2.305-8.756l-1.997-7.065c-0.87-2.919-1.792-5.786-2.713-8.653-0.768-2.304-1.485-4.608-2.304-6.86-1.024-2.92-2.1-5.786-3.175-8.705a347.648 347.648 0 0 0-2.508-6.605c-1.178-2.97-2.458-5.939-3.738-8.857-0.87-2.048-1.74-4.147-2.662-6.195-1.434-3.226-3.021-6.4-4.557-9.575-0.82-1.74-1.639-3.481-2.509-5.171a385.252 385.252 0 0 0-7.68-14.336c-0.307-0.563-0.666-1.075-0.973-1.638a379.535 379.535 0 0 0-7.424-12.442c-1.024-1.638-2.15-3.277-3.225-4.915-1.946-2.97-3.84-5.94-5.837-8.858-1.28-1.843-2.611-3.635-3.891-5.478-1.485-2.1-2.919-4.199-4.455-6.247l32.563-25.241c55.04 73.062 83.252 160.051 81.767 252.109-1.383 83.097-27.955 162.918-76.903 230.758a20.47 20.47 0 0 0 33.178 23.962c53.862-74.65 83.098-162.51 84.634-254.004C904.14 314.112 870.4 213.3 807.475 132.71zM630.99 776.243a400.378 400.378 0 0 1-33.69 14.592v-30.669c0-8.038 4.71-15.462 11.93-18.892a380.203 380.203 0 0 0 21.76-11.213v46.182z" fill="#EF6600" p-id="4260"></path><path d="M623.002 280.013c4.403 0 8.806-1.383 12.544-4.301l10.188-7.885a20.465 20.465 0 0 0 3.636-28.723 20.51 20.51 0 0 0-28.724-3.635l-10.188 7.885a20.465 20.465 0 0 0-3.636 28.723 20.408 20.408 0 0 0 16.18 7.936zM157.03 360.602a20.465 20.465 0 0 0 29.696-28.16 92.78 92.78 0 0 1-16.64-24.474l166.247 5.53c-5.223 9.523-12.135 18.022-20.583 25.395-24.064 20.992-58.214 28.109-88.985 18.585-10.803-3.379-22.272 2.714-25.6 13.517s2.713 22.272 13.517 25.6a134.531 134.531 0 0 0 39.628 5.99c32.154 0 63.847-11.417 88.372-32.819 19.404-16.896 33.484-38.81 40.704-63.334 2.304-7.782 0.87-15.974-3.84-22.528a25.544 25.544 0 0 0-20.02-10.65l-209.92-6.963c-8.243-0.307-15.564 3.123-20.684 9.319a25.646 25.646 0 0 0-5.274 22.22c5.325 23.655 16.845 45.364 33.382 62.772z m450.407-2.714a20.516 20.516 0 0 0 23.5 16.947l36.25-5.939a20.454 20.454 0 0 0 16.896-23.5 20.454 20.454 0 0 0-23.5-16.897l-36.25 5.94a20.378 20.378 0 0 0-16.896 23.449z m-25.754 75.725c-4.045 10.547 1.229 22.425 11.827 26.47l45.312 17.357c2.407 0.922 4.864 1.331 7.322 1.331 8.243 0 16.026-5.017 19.149-13.158 4.045-10.547-1.229-22.426-11.827-26.47l-45.312-17.357c-10.548-3.994-22.426 1.28-26.47 11.827z m-63.641 64.973a20.552 20.552 0 0 0-4.25 28.672l28.365 38.246a20.444 20.444 0 0 0 16.435 8.294c4.25 0 8.55-1.33 12.186-4.044a20.552 20.552 0 0 0 4.25-28.672l-28.366-38.247a20.485 20.485 0 0 0-28.62-4.25zM462.797 614.81l-3.533-47.31c-0.87-11.263-10.445-19.66-21.965-18.892-11.264 0.87-19.712 10.7-18.893 21.965l3.533 47.309c0.82 10.752 9.78 18.944 20.429 18.944 0.512 0 1.024 0 1.536-0.052 11.264-0.819 19.712-10.65 18.893-21.964zM330.29 627.968c7.578 0 14.848-4.25 18.432-11.52l16.282-33.331c4.966-10.138 0.768-22.426-9.421-27.392a20.47 20.47 0 0 0-27.392 9.42l-16.282 33.332a20.47 20.47 0 0 0 9.421 27.392 19.994 19.994 0 0 0 8.96 2.099z m-28.928 29.184a20.419 20.419 0 0 0 8.909 27.546c34.406 17.612 72.755 27.596 113.92 29.593h1.024a20.429 20.429 0 0 0 20.429-19.456 20.454 20.454 0 0 0-19.456-21.453c-35.328-1.74-68.096-10.188-97.28-25.139a20.45 20.45 0 0 0-27.546 8.909z m-17.357-40.806a20.46 20.46 0 0 0-28.825-1.69 20.49 20.49 0 0 0-1.741 28.928c0.512 0.563 3.226 3.584 8.192 8.09a20.582 20.582 0 0 0 13.722 5.324 20.48 20.48 0 0 0 15.206-6.707 20.48 20.48 0 0 0-1.434-28.928c-3.276-3.02-4.966-4.864-5.12-5.017z" fill="#EF6600" p-id="4261"></path></svg>